<svg id="Layer_1" data-name="Layer 1" xmlns="http://www.w3.org/2000/svg" xmlns:xlink="http://www.w3.org/1999/xlink" viewBox="0 0 581 2473.48"><defs><style>.cls-1,.cls-2{fill:#fff;}.cls-2{font-size:37.87px;font-family:NIGHTMAREPILLS, NIGHTMARE PILLS;}.cls-3{letter-spacing:-0.02em;}</style></defs><title>phon_port</title><rect x="105" y="0.39" width="360" height="2468"/><image width="6008" height="2869" transform="translate(124 468.39) scale(0.05)" xlink:href="work/landscape23_2-min.jpg"/><path class="cls-1" d="M159.35,644.86l1.14-.16h.22l1.25.16v.43h-2.61Zm.68-6.52.68.26-1.31-.16V638H161l4.51,6.21v1.15h-.35Zm.24-.33.55.43v6.85h-.55Zm3.59,0h2.61v.43l-1.08.16h-.22l-1.31-.16Zm1.15,0h.54v7.36l-.54-.54Z" transform="translate(105 0.39)"/><path class="cls-1" d="M167.3,642.74a2.49,2.49,0,1,1,2.48,2.7A2.48,2.48,0,0,1,167.3,642.74Zm4,0c0-1.46-.56-2.25-1.51-2.25s-1.5.79-1.5,2.25.54,2.21,1.5,2.21S171.29,644.2,171.29,642.74Z" transform="translate(105 0.39)"/><path class="cls-1" d="M176.56,645.29c0-.48,0-1.61,0-2.28v-.51c0-.6,0-.94,0-1.37l-.87-.1v-.38l1.48-.65.17.11.13,1.26V643c0,.67,0,1.8,0,2.28Zm1.7-.38v.38h-2.5v-.38l1.2-.21h.21Zm2.51-2.9v1c0,.7,0,1.8,0,2.28h-.94c0-.48,0-1.58,0-2.28v-.91c0-1-.26-1.34-.91-1.34a2.4,2.4,0,0,0-1.61.75h-.23V641h.56l-.47.19a3,3,0,0,1,2.15-1.21C180.33,640,180.77,640.57,180.77,642Zm-.29,2.69,1.09.21v.38h-2.5v-.38l1.19-.21Z" transform="translate(105 0.39)"/><path class="cls-1" d="M184.18,642.44a12.57,12.57,0,0,1,1.69-.45v.39a10.4,10.4,0,0,0-1.46.43c-1,.39-1.09.8-1.09,1.11,0,.58.38.81.88.81s.6-.14,1.29-.63l.22-.17.15.23-.32.32c-.65.65-1,1-1.68,1a1.33,1.33,0,0,1-1.46-1.36C182.4,643.47,182.72,643,184.18,642.44Zm1.25,1.85v-2.48c0-1.06-.3-1.32-1-1.32a2.56,2.56,0,0,0-1,.19l.44-.34-.29.94c-.09.32-.26.49-.55.49a.44.44,0,0,1-.49-.44,2,2,0,0,1,2.1-1.33c1.12,0,1.66.51,1.66,1.88v2.31c0,.48.16.66.41.66a.54.54,0,0,0,.42-.24l.22.24a1,1,0,0,1-.93.55A1,1,0,0,1,185.43,644.29Z" transform="translate(105 0.39)"/><path class="cls-1" d="M188.62,645.29c0-.48,0-1.61,0-2.28v-.51c0-.6,0-.94,0-1.37l-.87-.1v-.38l1.48-.65.16.11.14,1.26V643c0,.67,0,1.8,0,2.28Zm1.7-.38v.38h-2.5v-.38l1.19-.21h.22Zm2.47-2.9v1c0,.7,0,1.8,0,2.28h-.93c0-.48,0-1.58,0-2.28v-.91c0-1-.26-1.34-.91-1.34a2.3,2.3,0,0,0-1.57.75h-.23V641h.56l-.47.19a2.89,2.89,0,0,1,2.11-1.21C192.34,640,192.79,640.57,192.79,642Zm-.29,2.69,1.08.21v.38h-2.5v-.38l1.2-.21Zm3.55-2.81V643c0,.7,0,1.8,0,2.28h-.94c0-.48,0-1.58,0-2.28v-.94c0-1-.28-1.31-.92-1.31a2.24,2.24,0,0,0-1.56.75h-.26v-.38H193l-.5.08a2.66,2.66,0,0,1,2.14-1.21C195.54,640,196.05,640.54,196.05,641.89Zm-.29,2.81,1.09.21v.38h-2.5v-.38l1.19-.21Z" transform="translate(105 0.39)"/><path class="cls-1" d="M202.17,642.07a1.91,1.91,0,0,1-.08.61h-4v-.45h2.59c.52,0,.64-.25.64-.56a1.2,1.2,0,0,0-1.21-1.18c-.69,0-1.5.58-1.5,2.14,0,1.38.7,2.12,1.79,2.12a1.87,1.87,0,0,0,1.52-.77l.25.19a2.21,2.21,0,0,1-2.08,1.27,2.37,2.37,0,0,1-2.4-2.67,2.57,2.57,0,0,1,2.48-2.77A1.94,1.94,0,0,1,202.17,642.07Z" transform="translate(105 0.39)"/><path class="cls-1" d="M128.64,651.5v-.43h1.52v.59h-.11Zm1.52,6.26v.59h-1.52v-.43l1.41-.16Zm-.49-3.32c0-1.12,0-2.25,0-3.37h1c0,1.09,0,2.23,0,3.37v.38c0,1.28,0,2.41,0,3.53h-1c0-1.09,0-2.23,0-3.37Zm.49-.1h1.08c1.34,0,1.91-.42,1.91-1.42s-.57-1.35-1.69-1.35h-1.3v-.5h1.61c1.49,0,2.36.73,2.36,1.78,0,.85-.59,1.6-2,1.77v-.09c1.69.14,2.39.9,2.39,1.83s-.81,2-2.87,2h-1.46v-.5h1.2c1.41,0,2.1-.53,2.1-1.49s-.67-1.52-2.19-1.52h-1.11Z" transform="translate(105 0.39)"/><path class="cls-1" d="M136.81,650.3l.15.09,0,1.55v4.13q0,1.14,0,2.28H136q0-1.14,0-2.28v-4.79l-.9-.11v-.38Zm1,7.67v.38h-2.67V658l1.23-.21h.21Z" transform="translate(105 0.39)"/><path class="cls-1" d="M140.27,655.5a12.57,12.57,0,0,1,1.69-.45v.39a10.4,10.4,0,0,0-1.46.43c-1,.38-1.09.8-1.09,1.11,0,.58.38.81.88.81s.6-.14,1.29-.63l.21-.17.16.23-.32.32c-.65.65-1,1-1.69,1a1.32,1.32,0,0,1-1.45-1.36C138.49,656.53,138.81,656,140.27,655.5Zm1.25,1.85v-2.48c0-1.06-.3-1.32-1-1.32a2.56,2.56,0,0,0-1,.19l.44-.34-.29.94c-.1.32-.26.49-.55.49a.44.44,0,0,1-.49-.44,2,2,0,0,1,2.1-1.33c1.12,0,1.66.51,1.66,1.88v2.31c0,.48.15.66.4.66a.55.55,0,0,0,.43-.24l.22.24a1,1,0,0,1-.93.55A1,1,0,0,1,141.52,657.35Z" transform="translate(105 0.39)"/><path class="cls-1" d="M143.72,660.8l-.15-.36a2.79,2.79,0,0,0,1.7-2.09l0,.47-.52-.41a1,1,0,0,1-.41-.77A.63.63,0,0,1,145,657a1,1,0,0,1,.67.32,2.69,2.69,0,0,1,.12.78A3.11,3.11,0,0,1,143.72,660.8Z" transform="translate(105 0.39)"/><path class="cls-1" d="M149.65,658l1.18-.21-.36.59c0-.48,0-1.61,0-2.28v-4.79l-.9-.11v-.38l1.63-.49.15.09,0,1.55V654l0,.15v3.33l-.11,1-1.61-.11Zm4.51-2.15c0-1.4-.58-2.17-1.41-2.17-.39,0-.92.18-1.72,1l-.09-.19a2.51,2.51,0,0,1,2.07-1.37c1.16,0,2.07,1,2.07,2.66s-1,2.78-2.23,2.78c-.66,0-1.34-.3-1.91-1.43l.09-.17a2.24,2.24,0,0,0,1.67,1C153.48,657.9,154.16,657.22,154.16,655.82Z" transform="translate(105 0.39)"/><path class="cls-1" d="M157.41,650.3l.15.09,0,1.55v4.13q0,1.14,0,2.28h-.93q0-1.14,0-2.28v-4.79l-.9-.11v-.38Zm1,7.67v.38h-2.67V658l1.23-.21h.21Z" transform="translate(105 0.39)"/><path class="cls-1" d="M160.87,655.5a12.57,12.57,0,0,1,1.69-.45v.39a10.4,10.4,0,0,0-1.46.43c-1,.38-1.09.8-1.09,1.11,0,.58.38.81.88.81s.6-.14,1.29-.63l.22-.17.15.23-.32.32c-.65.65-1,1-1.68,1a1.33,1.33,0,0,1-1.46-1.36C159.09,656.53,159.41,656,160.87,655.5Zm1.25,1.85v-2.48c0-1.06-.3-1.32-1-1.32a2.56,2.56,0,0,0-1,.19l.44-.34-.29.94c-.09.32-.26.49-.55.49a.44.44,0,0,1-.49-.44,2,2,0,0,1,2.1-1.33c1.12,0,1.66.51,1.66,1.88v2.31c0,.48.16.66.41.66a.54.54,0,0,0,.42-.24l.22.24a1,1,0,0,1-.93.55A1,1,0,0,1,162.12,657.35Z" transform="translate(105 0.39)"/><path class="cls-1" d="M164.32,660.8l-.15-.36a2.79,2.79,0,0,0,1.7-2.09l0,.47-.52-.41a1,1,0,0,1-.4-.77.62.62,0,0,1,.65-.68,1,1,0,0,1,.67.32,2.69,2.69,0,0,1,.12.78A3.11,3.11,0,0,1,164.32,660.8Z" transform="translate(105 0.39)"/><path class="cls-1" d="M170.25,658l1.18-.21-.36.59c0-.48,0-1.61,0-2.28v-4.79l-.9-.11v-.38l1.63-.49.15.09,0,1.55V654l0,.15v3.33l-.11,1-1.61-.11Zm4.51-2.15c0-1.4-.58-2.17-1.41-2.17-.39,0-.92.18-1.72,1l-.09-.19a2.52,2.52,0,0,1,2.07-1.37c1.16,0,2.07,1,2.07,2.66s-1,2.78-2.23,2.78c-.66,0-1.34-.3-1.91-1.43l.09-.17a2.24,2.24,0,0,0,1.67,1C174.08,657.9,174.76,657.22,174.76,655.82Z" transform="translate(105 0.39)"/><path class="cls-1" d="M178,650.3l.15.09,0,1.55v4.13q0,1.14,0,2.28h-.93q0-1.14,0-2.28v-4.79l-.9-.11v-.38Zm1,7.67v.38h-2.67V658l1.23-.21h.21Z" transform="translate(105 0.39)"/><path class="cls-1" d="M181.47,655.5a13,13,0,0,1,1.69-.45v.39a10.4,10.4,0,0,0-1.46.43c-1,.38-1.09.8-1.09,1.11,0,.58.38.81.88.81s.6-.14,1.29-.63L183,657l.15.23-.32.32c-.65.65-1,1-1.68,1a1.33,1.33,0,0,1-1.46-1.36C179.69,656.53,180,656,181.47,655.5Zm1.25,1.85v-2.48c0-1.06-.3-1.32-1-1.32a2.6,2.6,0,0,0-1,.19l.44-.34-.29.94c-.09.32-.26.49-.55.49a.44.44,0,0,1-.49-.44,2,2,0,0,1,2.1-1.33c1.12,0,1.66.51,1.66,1.88v2.31c0,.48.16.66.41.66a.54.54,0,0,0,.42-.24l.22.24a1,1,0,0,1-.93.55A1,1,0,0,1,182.72,657.35Z" transform="translate(105 0.39)"/><path class="cls-1" d="M187,655.5a12.57,12.57,0,0,1,1.69-.45v.39a10.4,10.4,0,0,0-1.46.43c-1,.38-1.09.8-1.09,1.11,0,.58.38.81.88.81s.6-.14,1.29-.63l.21-.17.16.23-.32.32c-.65.65-1,1-1.69,1a1.32,1.32,0,0,1-1.45-1.36C185.22,656.53,185.54,656,187,655.5Zm1.25,1.85v-2.48c0-1.06-.3-1.32-1-1.32a2.56,2.56,0,0,0-1,.19l.44-.34-.29.94c-.1.32-.26.49-.55.49a.44.44,0,0,1-.49-.44,2,2,0,0,1,2.1-1.33c1.12,0,1.66.51,1.66,1.88v2.31c0,.48.16.66.41.66a.54.54,0,0,0,.42-.24l.22.24a1,1,0,0,1-.93.55A1,1,0,0,1,188.25,657.35Z" transform="translate(105 0.39)"/><path class="cls-1" d="M192.53,655.5a12.57,12.57,0,0,1,1.69-.45v.39a10,10,0,0,0-1.46.43c-1,.38-1.09.8-1.09,1.11,0,.58.38.81.88.81s.6-.14,1.28-.63l.22-.17.16.23-.32.32c-.65.65-1,1-1.69,1a1.32,1.32,0,0,1-1.45-1.36C190.75,656.53,191.07,656,192.53,655.5Zm1.25,1.85v-2.48c0-1.06-.3-1.32-1-1.32a2.56,2.56,0,0,0-1,.19l.43-.34-.28.94c-.1.32-.26.49-.55.49a.44.44,0,0,1-.49-.44,2,2,0,0,1,2.1-1.33c1.12,0,1.66.51,1.66,1.88v2.31c0,.48.15.66.4.66a.55.55,0,0,0,.43-.24l.22.24a1,1,0,0,1-.93.55A1,1,0,0,1,193.78,657.35Z" transform="translate(105 0.39)"/><path class="cls-1" d="M196,660.8l-.15-.36a2.76,2.76,0,0,0,1.69-2.09l0,.47-.52-.41a1,1,0,0,1-.41-.77.63.63,0,0,1,.66-.68,1,1,0,0,1,.67.32,2.69,2.69,0,0,1,.12.78A3.13,3.13,0,0,1,196,660.8Z" transform="translate(105 0.39)"/><path class="cls-1" d="M199.36,658l1.18-.21-.36.59c0-.48,0-1.61,0-2.28v-4.79l-.9-.11v-.38l1.63-.49.15.09,0,1.55V654l0,.15v3.33l-.11,1-1.61-.11Zm4.51-2.15c0-1.4-.58-2.17-1.41-2.17-.39,0-.92.18-1.71,1l-.1-.19a2.52,2.52,0,0,1,2.08-1.37c1.15,0,2.06,1,2.06,2.66s-.95,2.78-2.23,2.78c-.66,0-1.34-.3-1.91-1.43l.1-.17a2.21,2.21,0,0,0,1.66,1C203.19,657.9,203.87,657.22,203.87,655.82Z" transform="translate(105 0.39)"/><path class="cls-1" d="M207.12,650.3l.16.09-.05,1.55v4.13q0,1.14,0,2.28h-.93q0-1.14,0-2.28v-4.79l-.9-.11v-.38Zm1,7.67v.38h-2.67V658l1.23-.21h.22Z" transform="translate(105 0.39)"/><path class="cls-1" d="M208.62,660.8l-.16-.36a2.79,2.79,0,0,0,1.7-2.09l0,.47-.52-.41a1,1,0,0,1-.4-.77.63.63,0,0,1,.65-.68,1,1,0,0,1,.67.32,2.69,2.69,0,0,1,.12.78A3.12,3.12,0,0,1,208.62,660.8Z" transform="translate(105 0.39)"/><path class="cls-1" d="M212,658l1.17-.21-.35.59c0-.48,0-1.61,0-2.28v-4.79l-.9-.11v-.38l1.63-.49.15.09,0,1.55V654l0,.15v3.33l-.11,1-1.61-.11Zm4.5-2.15c0-1.4-.57-2.17-1.4-2.17a2.54,2.54,0,0,0-1.72,1l-.1-.19a2.52,2.52,0,0,1,2.08-1.37c1.15,0,2.07,1,2.07,2.66s-1,2.78-2.23,2.78c-.67,0-1.34-.3-1.92-1.43l.1-.17a2.23,2.23,0,0,0,1.67,1C215.83,657.9,216.5,657.22,216.5,655.82Z" transform="translate(105 0.39)"/><path class="cls-1" d="M219.76,650.3l.15.09,0,1.55v4.13q0,1.14,0,2.28H219c0-.76,0-1.52,0-2.28v-4.79l-.91-.11v-.38Zm1,7.67v.38h-2.68V658l1.23-.21h.22Z" transform="translate(105 0.39)"/><path class="cls-1" d="M222.83,656.43c0,1,.28,1.3.88,1.3a2.4,2.4,0,0,0,1.66-.81h.23v.55h-.55l.38-.16a2.58,2.58,0,0,1-2.07,1.19c-.87,0-1.41-.53-1.4-2l0-2.87.23.2-1-.22v-.38l1.56-.14.11.11,0,1.52Zm2.59,2-.16-1.27,0-3.5.22.2-1-.22v-.38l1.55-.14.11.11,0,1.52V658l-.26-.26,1,.21v.38Z" transform="translate(105 0.39)"/><path class="cls-1" d="M230.32,660.58V661h-2.78v-.39l1.23-.21H229Zm-1.87-5c0-.6,0-.94,0-1.37l-.87-.1v-.38l1.48-.65.16.11.09.92,0,0v3.4l0,.06v1.09c0,.76,0,1.54,0,2.31h-.9c0-.77,0-1.53,0-2.29Zm2.22-1.91a2.67,2.67,0,0,0-1.74,1l-.1-.19a2.52,2.52,0,0,1,2.08-1.37c1.15,0,2.07,1,2.07,2.69s-1,2.75-2.23,2.75c-.67,0-1.34-.31-1.92-1.44l.1-.17a2.15,2.15,0,0,0,1.62,1c.83,0,1.5-.64,1.5-2S231.48,653.65,230.67,653.65Z" transform="translate(105 0.39)"/><image width="7078" height="3508" transform="translate(124 695.39) scale(0.05)" xlink:href="work/landscape33-min.jpg"/><image width="6809" height="3353" transform="translate(124 940.39) scale(0.05)" xlink:href="work/landscape27_6-min.jpg"/><image width="7995" height="3508" transform="translate(123.89 1214.77) scale(0.04)" xlink:href="work/c-min.jpg"/><image width="7995" height="3508" transform="translate(123.89 1375.05) scale(0.04)" xlink:href="work/c_3-min.jpg"/><image width="7995" height="3508" transform="translate(124.14 1539.13) scale(0.04)" xlink:href="work/c_2-min.jpg"/><image width="7995" height="3508" transform="translate(124.14 1697.9) scale(0.04 0.04)" xlink:href="work/c_4-min.jpg"/><image width="5510" height="3709" transform="translate(0 2082.39) scale(0.11)" xlink:href="work/ad_mobile.png"/><path class="cls-1" d="M159,871.9l1.14-.16h.22l1.25.16v.44H159Zm.68-6.51.68.26-1.31-.16v-.44h1.63l4.52,6.21v1.16h-.35Zm.24-.34.54.44v6.85H160Zm3.59,0h2.61v.44l-1.09.16h-.21l-1.31-.16Zm1.14,0h.55v7.37l-.55-.55Z" transform="translate(105 0.39)"/><path class="cls-1" d="M167,869.78a2.49,2.49,0,1,1,5,0,2.49,2.49,0,1,1-5,0Zm4,0c0-1.45-.55-2.25-1.5-2.25s-1.5.8-1.5,2.25.53,2.21,1.5,2.21S171,871.24,171,869.78Z" transform="translate(105 0.39)"/><path class="cls-1" d="M176.25,872.34c0-.49,0-1.61,0-2.29v-.51c0-.59,0-.93,0-1.37l-.87-.09v-.39l1.48-.65.16.11.13,1.26v1.64c0,.68,0,1.8,0,2.29ZM178,872v.38h-2.5V872l1.19-.22h.22Zm2.51-2.91v1c0,.7,0,1.8,0,2.29h-.93c0-.49,0-1.59,0-2.29v-.91c0-1-.26-1.34-.91-1.34a2.38,2.38,0,0,0-1.61.75h-.23v-.49h.55l-.46.2a2.93,2.93,0,0,1,2.15-1.22C180,867,180.46,867.62,180.46,869.05Zm-.29,2.69,1.09.22v.38h-2.51V872l1.2-.22Z" transform="translate(105 0.39)"/><path class="cls-1" d="M183.87,869.49a12.55,12.55,0,0,1,1.69-.46v.39a9.92,9.92,0,0,0-1.46.44c-1,.38-1.09.79-1.09,1.11,0,.58.38.8.88.8s.6-.14,1.28-.63l.22-.16.15.23-.31.31c-.65.66-1,1-1.69,1a1.33,1.33,0,0,1-1.46-1.36C182.08,870.51,182.41,870,183.87,869.49Zm1.25,1.85v-2.48c0-1.07-.3-1.33-1-1.33a2.42,2.42,0,0,0-1,.2l.43-.34-.28.94c-.1.31-.26.48-.55.48a.44.44,0,0,1-.49-.43,2,2,0,0,1,2.1-1.34c1.12,0,1.66.51,1.66,1.88v2.31c0,.49.15.66.4.66a.52.52,0,0,0,.43-.24l.22.24a1,1,0,0,1-.93.56A1,1,0,0,1,185.12,871.34Z" transform="translate(105 0.39)"/><path class="cls-1" d="M188.31,872.34c0-.49,0-1.61,0-2.29v-.51c0-.59,0-.93,0-1.37l-.87-.09v-.39l1.48-.65.16.11.13,1.26v1.64c0,.68,0,1.8,0,2.29ZM190,872v.38H187.5V872l1.2-.22h.22Zm2.47-2.91v1c0,.7,0,1.8,0,2.29h-.94c0-.49,0-1.59,0-2.29v-.91c0-1-.27-1.34-.92-1.34a2.28,2.28,0,0,0-1.56.75h-.23v-.49h.55l-.47.2a2.89,2.89,0,0,1,2.11-1.22C192,867,192.48,867.62,192.48,869.05Zm-.3,2.69,1.09.22v.38h-2.5V872l1.19-.22Zm3.56-2.81v1.12c0,.7,0,1.8,0,2.29h-.93c0-.49,0-1.59,0-2.29v-.93c0-1-.28-1.32-.92-1.32a2.29,2.29,0,0,0-1.56.75h-.26v-.38h.59l-.51.09a2.7,2.7,0,0,1,2.15-1.22C195.23,867,195.74,867.59,195.74,868.93Zm-.29,2.81,1.08.22v.38H194V872l1.2-.22Z" transform="translate(105 0.39)"/><path class="cls-1" d="M201.86,869.12a2.31,2.31,0,0,1-.08.61h-4v-.46h2.59c.52,0,.64-.25.64-.55a1.21,1.21,0,0,0-1.21-1.19c-.7,0-1.5.59-1.5,2.14,0,1.39.69,2.13,1.78,2.13a1.9,1.9,0,0,0,1.53-.78l.25.2a2.22,2.22,0,0,1-2.08,1.26,2.37,2.37,0,0,1-2.41-2.66,2.58,2.58,0,0,1,2.48-2.78A2,2,0,0,1,201.86,869.12Z" transform="translate(105 0.39)"/><path class="cls-1" d="M128.33,878.54v-.43h1.52v.6h-.11Zm1.52,6.26v.6h-1.52V885l1.41-.16Zm-.49-3.32c0-1.12,0-2.25,0-3.37h1c0,1.1,0,2.23,0,3.37v.38c0,1.29,0,2.42,0,3.54h-1c0-1.1,0-2.23,0-3.37Zm.49-.1h1.08c1.33,0,1.91-.42,1.91-1.42s-.58-1.35-1.7-1.35h-1.29v-.5h1.61c1.49,0,2.36.74,2.36,1.78,0,.85-.59,1.6-2,1.78v-.1c1.7.14,2.4.9,2.4,1.84s-.82,2-2.87,2h-1.46v-.5H131c1.42,0,2.1-.53,2.1-1.49s-.66-1.52-2.18-1.52h-1.11Z" transform="translate(105 0.39)"/><path class="cls-1" d="M136.5,877.35l.15.09,0,1.54v4.13c0,.77,0,1.53,0,2.29h-.94c0-.76,0-1.52,0-2.29v-4.78l-.91-.11v-.38Zm1,7.67v.38h-2.68V885l1.23-.22h.22Z" transform="translate(105 0.39)"/><path class="cls-1" d="M140,882.55a12.81,12.81,0,0,1,1.68-.46v.39a9.76,9.76,0,0,0-1.45.44c-1,.38-1.09.79-1.09,1.11,0,.58.38.8.88.8s.6-.14,1.28-.63l.22-.16.15.23-.31.31c-.65.66-1,1-1.69,1a1.33,1.33,0,0,1-1.46-1.36C138.17,883.57,138.5,883.08,140,882.55Zm1.25,1.85v-2.48c0-1.07-.31-1.33-1-1.33a2.42,2.42,0,0,0-1,.2l.43-.34-.28.93c-.1.32-.26.49-.56.49a.43.43,0,0,1-.48-.43,2,2,0,0,1,2.1-1.34c1.12,0,1.66.51,1.66,1.88v2.31c0,.49.15.66.4.66a.52.52,0,0,0,.43-.24l.21.24a1,1,0,0,1-.92.56A1,1,0,0,1,141.21,884.4Z" transform="translate(105 0.39)"/><path class="cls-1" d="M143.41,887.85l-.15-.36A2.78,2.78,0,0,0,145,885.4l0,.47-.53-.42a1,1,0,0,1-.4-.77.62.62,0,0,1,.65-.67,1,1,0,0,1,.68.31,3.09,3.09,0,0,1,.12.79A3.14,3.14,0,0,1,143.41,887.85Z" transform="translate(105 0.39)"/><path class="cls-1" d="M149.34,885l1.17-.22-.35.6c0-.49,0-1.61,0-2.29v-4.78l-.9-.11v-.38l1.63-.49.15.09,0,1.54v2.09l0,.14v3.33l-.11,1-1.61-.11Zm4.5-2.16c0-1.4-.57-2.16-1.4-2.16-.39,0-.92.17-1.72,1l-.1-.2a2.52,2.52,0,0,1,2.08-1.37c1.15,0,2.07,1,2.07,2.67s-1,2.77-2.23,2.77c-.67,0-1.34-.29-1.92-1.42l.1-.18a2.2,2.2,0,0,0,1.67,1C153.17,884.94,153.84,884.27,153.84,882.86Z" transform="translate(105 0.39)"/><path class="cls-1" d="M157.1,877.35l.15.09,0,1.54v4.13c0,.77,0,1.53,0,2.29h-.94c0-.76,0-1.52,0-2.29v-4.78l-.91-.11v-.38Zm1,7.67v.38h-2.68V885l1.23-.22h.22Z" transform="translate(105 0.39)"/><path class="cls-1" d="M160.56,882.55a12.55,12.55,0,0,1,1.69-.46v.39a9.92,9.92,0,0,0-1.46.44c-1,.38-1.09.79-1.09,1.11,0,.58.38.8.88.8s.6-.14,1.28-.63l.22-.16.15.23-.31.31c-.65.66-1,1-1.69,1a1.33,1.33,0,0,1-1.46-1.36C158.77,883.57,159.1,883.08,160.56,882.55Zm1.25,1.85v-2.48c0-1.07-.3-1.33-1-1.33a2.42,2.42,0,0,0-1,.2l.43-.34-.28.93c-.1.32-.26.49-.55.49a.44.44,0,0,1-.49-.43,2,2,0,0,1,2.1-1.34c1.12,0,1.66.51,1.66,1.88v2.31c0,.49.15.66.4.66a.52.52,0,0,0,.43-.24l.22.24a1,1,0,0,1-.93.56A1,1,0,0,1,161.81,884.4Z" transform="translate(105 0.39)"/><path class="cls-1" d="M164,887.85l-.15-.36a2.78,2.78,0,0,0,1.69-2.09l0,.47-.53-.42a1,1,0,0,1-.4-.77.62.62,0,0,1,.65-.67,1,1,0,0,1,.68.31,2.71,2.71,0,0,1,.12.79A3.14,3.14,0,0,1,164,887.85Z" transform="translate(105 0.39)"/><path class="cls-1" d="M169.94,885l1.18-.22-.36.6c0-.49,0-1.61,0-2.29v-4.78l-.9-.11v-.38l1.63-.49.15.09,0,1.54v2.09l0,.14v3.33l-.11,1-1.61-.11Zm4.5-2.16c0-1.4-.57-2.16-1.4-2.16-.39,0-.92.17-1.72,1l-.1-.2a2.52,2.52,0,0,1,2.08-1.37c1.16,0,2.07,1,2.07,2.67s-1,2.77-2.23,2.77c-.66,0-1.34-.29-1.92-1.42l.1-.18a2.21,2.21,0,0,0,1.67,1C173.77,884.94,174.44,884.27,174.44,882.86Z" transform="translate(105 0.39)"/><path class="cls-1" d="M177.7,877.35l.15.09,0,1.54v4.13c0,.77,0,1.53,0,2.29h-.93c0-.76,0-1.52,0-2.29v-4.78l-.91-.11v-.38Zm1,7.67v.38H176V885l1.23-.22h.22Z" transform="translate(105 0.39)"/><path class="cls-1" d="M181.16,882.55a12.55,12.55,0,0,1,1.69-.46v.39a9.92,9.92,0,0,0-1.46.44c-1,.38-1.09.79-1.09,1.11,0,.58.38.8.88.8s.6-.14,1.28-.63l.22-.16.15.23-.31.31c-.65.66-1,1-1.69,1a1.32,1.32,0,0,1-1.45-1.36C179.38,883.57,179.7,883.08,181.16,882.55Zm1.25,1.85v-2.48c0-1.07-.3-1.33-1-1.33a2.42,2.42,0,0,0-1,.2l.43-.34-.28.93c-.1.32-.26.49-.55.49a.44.44,0,0,1-.49-.43,2,2,0,0,1,2.1-1.34c1.12,0,1.66.51,1.66,1.88v2.31c0,.49.15.66.4.66a.52.52,0,0,0,.43-.24l.22.24a1,1,0,0,1-.93.56A1,1,0,0,1,182.41,884.4Z" transform="translate(105 0.39)"/><path class="cls-1" d="M186.69,882.55a12.39,12.39,0,0,1,1.68-.46v.39a9.76,9.76,0,0,0-1.45.44c-1,.38-1.09.79-1.09,1.11,0,.58.38.8.88.8s.6-.14,1.28-.63l.22-.16.15.23-.31.31c-.66.66-1,1-1.69,1a1.33,1.33,0,0,1-1.46-1.36C184.9,883.57,185.23,883.08,186.69,882.55Zm1.25,1.85v-2.48c0-1.07-.31-1.33-1-1.33a2.42,2.42,0,0,0-1,.2l.43-.34-.28.93c-.1.32-.26.49-.56.49a.45.45,0,0,1-.49-.43,2,2,0,0,1,2.1-1.34c1.13,0,1.67.51,1.67,1.88v2.31c0,.49.15.66.4.66a.52.52,0,0,0,.43-.24l.21.24a1,1,0,0,1-.92.56A1,1,0,0,1,187.94,884.4Z" transform="translate(105 0.39)"/><path class="cls-1" d="M192.22,882.55a12.39,12.39,0,0,1,1.68-.46v.39a10.31,10.31,0,0,0-1.46.44c-1,.38-1.08.79-1.08,1.11,0,.58.38.8.88.8s.6-.14,1.28-.63l.22-.16.15.23-.31.31c-.66.66-1,1-1.69,1a1.33,1.33,0,0,1-1.46-1.36C190.43,883.57,190.76,883.08,192.22,882.55Zm1.25,1.85v-2.48c0-1.07-.31-1.33-1-1.33a2.38,2.38,0,0,0-1,.2l.43-.34-.28.93c-.1.32-.26.49-.56.49a.44.44,0,0,1-.49-.43,2,2,0,0,1,2.1-1.34c1.12,0,1.67.51,1.67,1.88v2.31c0,.49.15.66.4.66a.52.52,0,0,0,.42-.24l.22.24a1,1,0,0,1-.92.56A1,1,0,0,1,193.47,884.4Z" transform="translate(105 0.39)"/><path class="cls-1" d="M195.67,887.85l-.16-.36a2.79,2.79,0,0,0,1.7-2.09l0,.47-.52-.42a1,1,0,0,1-.4-.77A.62.62,0,0,1,197,884a1,1,0,0,1,.68.31,3.09,3.09,0,0,1,.12.79A3.14,3.14,0,0,1,195.67,887.85Z" transform="translate(105 0.39)"/><path class="cls-1" d="M199.05,885l1.18-.22-.36.6c0-.49,0-1.61,0-2.29v-4.78l-.9-.11v-.38l1.63-.49.15.09,0,1.54v2.09l0,.14v3.33l-.11,1-1.61-.11Zm4.5-2.16c0-1.4-.57-2.16-1.4-2.16-.39,0-.92.17-1.72,1l-.1-.2a2.54,2.54,0,0,1,2.08-1.37c1.16,0,2.07,1,2.07,2.67s-1,2.77-2.23,2.77c-.66,0-1.34-.29-1.92-1.42l.1-.18a2.21,2.21,0,0,0,1.67,1C202.88,884.94,203.55,884.27,203.55,882.86Z" transform="translate(105 0.39)"/><path class="cls-1" d="M206.81,877.35l.15.09,0,1.54v4.13c0,.77,0,1.53,0,2.29H206c0-.76,0-1.52,0-2.29v-4.78l-.9-.11v-.38Zm1,7.67v.38h-2.67V885l1.22-.22h.22Z" transform="translate(105 0.39)"/><path class="cls-1" d="M208.3,887.85l-.15-.36a2.81,2.81,0,0,0,1.7-2.09l0,.47-.52-.42a1,1,0,0,1-.41-.77.62.62,0,0,1,.66-.67,1,1,0,0,1,.67.31,2.71,2.71,0,0,1,.12.79A3.12,3.12,0,0,1,208.3,887.85Z" transform="translate(105 0.39)"/><path class="cls-1" d="M211.69,885l1.17-.22-.36.6c0-.49,0-1.61,0-2.29v-4.78l-.9-.11v-.38l1.63-.49.16.09,0,1.54v2.09l0,.14v3.33l-.1,1-1.61-.11Zm4.5-2.16c0-1.4-.58-2.16-1.4-2.16a2.48,2.48,0,0,0-1.72,1l-.1-.2a2.52,2.52,0,0,1,2.08-1.37c1.15,0,2.06,1,2.06,2.67s-1,2.77-2.23,2.77c-.66,0-1.33-.29-1.91-1.42l.1-.18a2.18,2.18,0,0,0,1.66,1C215.52,884.94,216.19,884.27,216.19,882.86Z" transform="translate(105 0.39)"/><path class="cls-1" d="M219.44,877.35l.16.09,0,1.54v4.13c0,.77,0,1.53,0,2.29h-.94c0-.76,0-1.52,0-2.29v-4.78l-.9-.11v-.38Zm1,7.67v.38h-2.68V885l1.23-.22h.22Z" transform="translate(105 0.39)"/><path class="cls-1" d="M222.51,883.47c0,1,.29,1.31.88,1.31a2.39,2.39,0,0,0,1.67-.82h.23v.56h-.56l.38-.16a2.59,2.59,0,0,1-2.06,1.18c-.87,0-1.42-.52-1.41-2l0-2.87.22.21-1-.22v-.38l1.57-.14.11.11-.06,1.52Zm2.59,2-.15-1.28,0-3.5.23.21-1-.22v-.38l1.54-.14.11.11,0,1.52v3.25l-.26-.26,1,.22v.38Z" transform="translate(105 0.39)"/><path class="cls-1" d="M230,887.63V888h-2.78v-.38l1.23-.22h.21Zm-1.87-5c0-.6,0-.93,0-1.37l-.87-.1v-.38l1.48-.65.16.11.09.92,0,0v3.39l0,.07v1.08c0,.77,0,1.55,0,2.31h-.9q0-1.14,0-2.28Zm2.22-1.9a2.65,2.65,0,0,0-1.74,1l-.1-.2a2.52,2.52,0,0,1,2.08-1.37c1.15,0,2.07,1,2.07,2.7s-1,2.74-2.24,2.74c-.66,0-1.33-.3-1.91-1.44l.1-.17a2.11,2.11,0,0,0,1.62,1c.83,0,1.5-.64,1.5-2S231.16,880.7,230.36,880.7Z" transform="translate(105 0.39)"/><path class="cls-1" d="M159,1124.9l1.14-.16h.22l1.25.16v.44H159Zm.68-6.51.68.26-1.31-.16v-.44h1.63l4.52,6.21v1.16h-.35Zm.24-.34.54.44v6.85H160Zm3.59,0h2.61v.44l-1.09.16h-.21l-1.31-.16Zm1.14,0h.55v7.37l-.55-.55Z" transform="translate(105 0.39)"/><path class="cls-1" d="M167,1122.78a2.49,2.49,0,1,1,5,0,2.49,2.49,0,1,1-5,0Zm4,0c0-1.45-.55-2.25-1.5-2.25s-1.5.8-1.5,2.25.53,2.21,1.5,2.21S171,1124.24,171,1122.78Z" transform="translate(105 0.39)"/><path class="cls-1" d="M176.25,1125.34c0-.49,0-1.61,0-2.29v-.51c0-.59,0-.93,0-1.37l-.87-.09v-.39l1.48-.65.16.11.13,1.26v1.64c0,.68,0,1.8,0,2.29Zm1.7-.38v.38h-2.5V1125l1.19-.22h.22Zm2.51-2.91v1c0,.7,0,1.8,0,2.29h-.93c0-.49,0-1.59,0-2.29v-.91c0-1-.26-1.34-.91-1.34a2.38,2.38,0,0,0-1.61.75h-.23v-.49h.55l-.46.2a2.93,2.93,0,0,1,2.15-1.22C180,1120,180.46,1120.62,180.46,1122.05Zm-.29,2.69,1.09.22v.38h-2.51V1125l1.2-.22Z" transform="translate(105 0.39)"/><path class="cls-1" d="M183.87,1122.49a12.55,12.55,0,0,1,1.69-.46v.39a9.92,9.92,0,0,0-1.46.44c-1,.38-1.09.79-1.09,1.11,0,.58.38.8.88.8s.6-.14,1.28-.63l.22-.16.15.23-.31.31c-.65.66-1,1-1.69,1a1.33,1.33,0,0,1-1.46-1.36C182.08,1123.51,182.41,1123,183.87,1122.49Zm1.25,1.85v-2.48c0-1.07-.3-1.33-1-1.33a2.42,2.42,0,0,0-1,.2l.43-.34-.28.94c-.1.31-.26.48-.55.48a.44.44,0,0,1-.49-.43,2,2,0,0,1,2.1-1.34c1.12,0,1.66.51,1.66,1.88v2.31c0,.49.15.66.4.66a.52.52,0,0,0,.43-.24l.22.24a1,1,0,0,1-.93.56A1,1,0,0,1,185.12,1124.34Z" transform="translate(105 0.39)"/><path class="cls-1" d="M188.31,1125.34c0-.49,0-1.61,0-2.29v-.51c0-.59,0-.93,0-1.37l-.87-.09v-.39l1.48-.65.16.11.13,1.26v1.64c0,.68,0,1.8,0,2.29Zm1.7-.38v.38H187.5V1125l1.2-.22h.22Zm2.47-2.91v1c0,.7,0,1.8,0,2.29h-.94c0-.49,0-1.59,0-2.29v-.91c0-1-.27-1.34-.92-1.34a2.28,2.28,0,0,0-1.56.75h-.23v-.49h.55l-.47.2a2.89,2.89,0,0,1,2.11-1.22C192,1120,192.48,1120.62,192.48,1122.05Zm-.3,2.69,1.09.22v.38h-2.5V1125l1.19-.22Zm3.56-2.81v1.12c0,.7,0,1.8,0,2.29h-.93c0-.49,0-1.59,0-2.29v-.93c0-1-.28-1.32-.92-1.32a2.29,2.29,0,0,0-1.56.75h-.26v-.38h.59l-.51.09a2.7,2.7,0,0,1,2.15-1.22C195.23,1120,195.74,1120.59,195.74,1121.93Zm-.29,2.81,1.08.22v.38H194V1125l1.2-.22Z" transform="translate(105 0.39)"/><path class="cls-1" d="M201.86,1122.12a2.31,2.31,0,0,1-.08.61h-4v-.46h2.59c.52,0,.64-.25.64-.55a1.21,1.21,0,0,0-1.21-1.19c-.7,0-1.5.59-1.5,2.14,0,1.39.69,2.13,1.78,2.13a1.9,1.9,0,0,0,1.53-.78l.25.2a2.22,2.22,0,0,1-2.08,1.26,2.37,2.37,0,0,1-2.41-2.66,2.58,2.58,0,0,1,2.48-2.78A2,2,0,0,1,201.86,1122.12Z" transform="translate(105 0.39)"/><path class="cls-1" d="M128.33,1131.54v-.43h1.52v.6h-.11Zm1.52,6.26v.6h-1.52V1138l1.41-.16Zm-.49-3.32c0-1.12,0-2.25,0-3.37h1c0,1.1,0,2.23,0,3.37v.38c0,1.29,0,2.42,0,3.54h-1c0-1.1,0-2.23,0-3.37Zm.49-.1h1.08c1.33,0,1.91-.42,1.91-1.42s-.58-1.35-1.7-1.35h-1.29v-.5h1.61c1.49,0,2.36.74,2.36,1.78,0,.85-.59,1.6-2,1.78v-.1c1.7.14,2.4.9,2.4,1.84s-.82,2-2.87,2h-1.46v-.5H131c1.42,0,2.1-.53,2.1-1.49s-.66-1.52-2.18-1.52h-1.11Z" transform="translate(105 0.39)"/><path class="cls-1" d="M136.5,1130.35l.15.09,0,1.54v4.13c0,.77,0,1.53,0,2.29h-.94c0-.76,0-1.52,0-2.29v-4.78l-.91-.11v-.38Zm1,7.67v.38h-2.68V1138l1.23-.22h.22Z" transform="translate(105 0.39)"/><path class="cls-1" d="M140,1135.55a12.81,12.81,0,0,1,1.68-.46v.39a9.76,9.76,0,0,0-1.45.44c-1,.38-1.09.79-1.09,1.11,0,.58.38.8.88.8s.6-.14,1.28-.63l.22-.16.15.23-.31.31c-.65.66-1,1-1.69,1a1.33,1.33,0,0,1-1.46-1.36C138.17,1136.57,138.5,1136.08,140,1135.55Zm1.25,1.85v-2.48c0-1.07-.31-1.33-1-1.33a2.42,2.42,0,0,0-1,.2l.43-.34-.28.93c-.1.32-.26.49-.56.49a.43.43,0,0,1-.48-.43,2,2,0,0,1,2.1-1.34c1.12,0,1.66.51,1.66,1.88v2.31c0,.49.15.66.4.66a.52.52,0,0,0,.43-.24l.21.24a1,1,0,0,1-.92.56A1,1,0,0,1,141.21,1137.4Z" transform="translate(105 0.39)"/><path class="cls-1" d="M143.41,1140.85l-.15-.36a2.78,2.78,0,0,0,1.69-2.09l0,.47-.53-.42a1,1,0,0,1-.4-.77.62.62,0,0,1,.65-.67,1,1,0,0,1,.68.31,3.09,3.09,0,0,1,.12.79A3.14,3.14,0,0,1,143.41,1140.85Z" transform="translate(105 0.39)"/><path class="cls-1" d="M149.34,1138l1.17-.22-.35.6c0-.49,0-1.61,0-2.29v-4.78l-.9-.11v-.38l1.63-.49.15.09,0,1.54v2.09l0,.14v3.33l-.11,1-1.61-.11Zm4.5-2.16c0-1.4-.57-2.16-1.4-2.16-.39,0-.92.17-1.72,1l-.1-.2a2.52,2.52,0,0,1,2.08-1.37c1.15,0,2.07,1,2.07,2.67s-1,2.77-2.23,2.77c-.67,0-1.34-.29-1.92-1.42l.1-.18a2.2,2.2,0,0,0,1.67,1C153.17,1137.94,153.84,1137.27,153.84,1135.86Z" transform="translate(105 0.39)"/><path class="cls-1" d="M157.1,1130.35l.15.09,0,1.54v4.13c0,.77,0,1.53,0,2.29h-.94c0-.76,0-1.52,0-2.29v-4.78l-.91-.11v-.38Zm1,7.67v.38h-2.68V1138l1.23-.22h.22Z" transform="translate(105 0.39)"/><path class="cls-1" d="M160.56,1135.55a12.55,12.55,0,0,1,1.69-.46v.39a9.92,9.92,0,0,0-1.46.44c-1,.38-1.09.79-1.09,1.11,0,.58.38.8.88.8s.6-.14,1.28-.63l.22-.16.15.23-.31.31c-.65.66-1,1-1.69,1a1.33,1.33,0,0,1-1.46-1.36C158.77,1136.57,159.1,1136.08,160.56,1135.55Zm1.25,1.85v-2.48c0-1.07-.3-1.33-1-1.33a2.42,2.42,0,0,0-1,.2l.43-.34-.28.93c-.1.32-.26.49-.55.49a.44.44,0,0,1-.49-.43,2,2,0,0,1,2.1-1.34c1.12,0,1.66.51,1.66,1.88v2.31c0,.49.15.66.4.66a.52.52,0,0,0,.43-.24l.22.24a1,1,0,0,1-.93.56A1,1,0,0,1,161.81,1137.4Z" transform="translate(105 0.39)"/><path class="cls-1" d="M164,1140.85l-.15-.36a2.78,2.78,0,0,0,1.69-2.09l0,.47-.53-.42a1,1,0,0,1-.4-.77.62.62,0,0,1,.65-.67,1,1,0,0,1,.68.31,2.71,2.71,0,0,1,.12.79A3.14,3.14,0,0,1,164,1140.85Z" transform="translate(105 0.39)"/><path class="cls-1" d="M169.94,1138l1.18-.22-.36.6c0-.49,0-1.61,0-2.29v-4.78l-.9-.11v-.38l1.63-.49.15.09,0,1.54v2.09l0,.14v3.33l-.11,1-1.61-.11Zm4.5-2.16c0-1.4-.57-2.16-1.4-2.16-.39,0-.92.17-1.72,1l-.1-.2a2.52,2.52,0,0,1,2.08-1.37c1.16,0,2.07,1,2.07,2.67s-1,2.77-2.23,2.77c-.66,0-1.34-.29-1.92-1.42l.1-.18a2.21,2.21,0,0,0,1.67,1C173.77,1137.94,174.44,1137.27,174.44,1135.86Z" transform="translate(105 0.39)"/><path class="cls-1" d="M177.7,1130.35l.15.09,0,1.54v4.13c0,.77,0,1.53,0,2.29h-.93c0-.76,0-1.52,0-2.29v-4.78l-.91-.11v-.38Zm1,7.67v.38H176V1138l1.23-.22h.22Z" transform="translate(105 0.39)"/><path class="cls-1" d="M181.16,1135.55a12.55,12.55,0,0,1,1.69-.46v.39a9.92,9.92,0,0,0-1.46.44c-1,.38-1.09.79-1.09,1.11,0,.58.38.8.88.8s.6-.14,1.28-.63l.22-.16.15.23-.31.31c-.65.66-1,1-1.69,1a1.32,1.32,0,0,1-1.45-1.36C179.38,1136.57,179.7,1136.08,181.16,1135.55Zm1.25,1.85v-2.48c0-1.07-.3-1.33-1-1.33a2.42,2.42,0,0,0-1,.2l.43-.34-.28.93c-.1.32-.26.49-.55.49a.44.44,0,0,1-.49-.43,2,2,0,0,1,2.1-1.34c1.12,0,1.66.51,1.66,1.88v2.31c0,.49.15.66.4.66a.52.52,0,0,0,.43-.24l.22.24a1,1,0,0,1-.93.56A1,1,0,0,1,182.41,1137.4Z" transform="translate(105 0.39)"/><path class="cls-1" d="M186.69,1135.55a12.39,12.39,0,0,1,1.68-.46v.39a9.76,9.76,0,0,0-1.45.44c-1,.38-1.09.79-1.09,1.11,0,.58.38.8.88.8s.6-.14,1.28-.63l.22-.16.15.23-.31.31c-.66.66-1,1-1.69,1a1.33,1.33,0,0,1-1.46-1.36C184.9,1136.57,185.23,1136.08,186.69,1135.55Zm1.25,1.85v-2.48c0-1.07-.31-1.33-1-1.33a2.42,2.42,0,0,0-1,.2l.43-.34-.28.93c-.1.32-.26.49-.56.49a.45.45,0,0,1-.49-.43,2,2,0,0,1,2.1-1.34c1.13,0,1.67.51,1.67,1.88v2.31c0,.49.15.66.4.66a.52.52,0,0,0,.43-.24l.21.24a1,1,0,0,1-.92.56A1,1,0,0,1,187.94,1137.4Z" transform="translate(105 0.39)"/><path class="cls-1" d="M192.22,1135.55a12.39,12.39,0,0,1,1.68-.46v.39a10.31,10.31,0,0,0-1.46.44c-1,.38-1.08.79-1.08,1.11,0,.58.38.8.88.8s.6-.14,1.28-.63l.22-.16.15.23-.31.31c-.66.66-1,1-1.69,1a1.33,1.33,0,0,1-1.46-1.36C190.43,1136.57,190.76,1136.08,192.22,1135.55Zm1.25,1.85v-2.48c0-1.07-.31-1.33-1-1.33a2.38,2.38,0,0,0-1,.2l.43-.34-.28.93c-.1.32-.26.49-.56.49a.44.44,0,0,1-.49-.43,2,2,0,0,1,2.1-1.34c1.12,0,1.67.51,1.67,1.88v2.31c0,.49.15.66.4.66a.52.52,0,0,0,.42-.24l.22.24a1,1,0,0,1-.92.56A1,1,0,0,1,193.47,1137.4Z" transform="translate(105 0.39)"/><path class="cls-1" d="M195.67,1140.85l-.16-.36a2.79,2.79,0,0,0,1.7-2.09l0,.47-.52-.42a1,1,0,0,1-.4-.77.62.62,0,0,1,.65-.67,1,1,0,0,1,.68.31,3.09,3.09,0,0,1,.12.79A3.14,3.14,0,0,1,195.67,1140.85Z" transform="translate(105 0.39)"/><path class="cls-1" d="M199.05,1138l1.18-.22-.36.6c0-.49,0-1.61,0-2.29v-4.78l-.9-.11v-.38l1.63-.49.15.09,0,1.54v2.09l0,.14v3.33l-.11,1-1.61-.11Zm4.5-2.16c0-1.4-.57-2.16-1.4-2.16-.39,0-.92.17-1.72,1l-.1-.2a2.54,2.54,0,0,1,2.08-1.37c1.16,0,2.07,1,2.07,2.67s-1,2.77-2.23,2.77c-.66,0-1.34-.29-1.92-1.42l.1-.18a2.21,2.21,0,0,0,1.67,1C202.88,1137.94,203.55,1137.27,203.55,1135.86Z" transform="translate(105 0.39)"/><path class="cls-1" d="M206.81,1130.35l.15.09,0,1.54v4.13c0,.77,0,1.53,0,2.29H206c0-.76,0-1.52,0-2.29v-4.78l-.9-.11v-.38Zm1,7.67v.38h-2.67V1138l1.22-.22h.22Z" transform="translate(105 0.39)"/><path class="cls-1" d="M208.3,1140.85l-.15-.36a2.81,2.81,0,0,0,1.7-2.09l0,.47-.52-.42a1,1,0,0,1-.41-.77.62.62,0,0,1,.66-.67,1,1,0,0,1,.67.31,2.71,2.71,0,0,1,.12.79A3.12,3.12,0,0,1,208.3,1140.85Z" transform="translate(105 0.39)"/><path class="cls-1" d="M211.69,1138l1.17-.22-.36.6c0-.49,0-1.61,0-2.29v-4.78l-.9-.11v-.38l1.63-.49.16.09,0,1.54v2.09l0,.14v3.33l-.1,1-1.61-.11Zm4.5-2.16c0-1.4-.58-2.16-1.4-2.16a2.48,2.48,0,0,0-1.72,1l-.1-.2a2.52,2.52,0,0,1,2.08-1.37c1.15,0,2.06,1,2.06,2.67s-1,2.77-2.23,2.77c-.66,0-1.33-.29-1.91-1.42l.1-.18a2.18,2.18,0,0,0,1.66,1C215.52,1137.94,216.19,1137.27,216.19,1135.86Z" transform="translate(105 0.39)"/><path class="cls-1" d="M219.44,1130.35l.16.09,0,1.54v4.13c0,.77,0,1.53,0,2.29h-.94c0-.76,0-1.52,0-2.29v-4.78l-.9-.11v-.38Zm1,7.67v.38h-2.68V1138l1.23-.22h.22Z" transform="translate(105 0.39)"/><path class="cls-1" d="M222.51,1136.47c0,1,.29,1.31.88,1.31a2.39,2.39,0,0,0,1.67-.82h.23v.56h-.56l.38-.16a2.59,2.59,0,0,1-2.06,1.18c-.87,0-1.42-.52-1.41-2l0-2.87.22.21-1-.22v-.38l1.57-.14.11.11-.06,1.52Zm2.59,2-.15-1.28,0-3.5.23.21-1-.22v-.38l1.54-.14.11.11,0,1.52v3.25l-.26-.26,1,.22v.38Z" transform="translate(105 0.39)"/><path class="cls-1" d="M230,1140.63v.38h-2.78v-.38l1.23-.22h.21Zm-1.87-5c0-.6,0-.93,0-1.37l-.87-.1v-.38l1.48-.65.16.11.09.92,0,0v3.39l0,.07v1.08c0,.77,0,1.55,0,2.31h-.9q0-1.14,0-2.28Zm2.22-1.9a2.65,2.65,0,0,0-1.74,1l-.1-.2a2.52,2.52,0,0,1,2.08-1.37c1.15,0,2.07,1,2.07,2.7s-1,2.74-2.24,2.74c-.66,0-1.33-.3-1.91-1.44l.1-.17a2.11,2.11,0,0,0,1.62,1c.83,0,1.5-.64,1.5-2S231.16,1133.7,230.36,1133.7Z" transform="translate(105 0.39)"/><path class="cls-1" d="M159,1861.9l1.14-.16h.22l1.25.16v.44H159Zm.68-6.51.68.26-1.31-.16v-.44h1.63l4.52,6.21v1.16h-.35Zm.24-.34.54.44v6.85H160Zm3.59,0h2.61v.44l-1.09.16h-.21l-1.31-.16Zm1.14,0h.55v7.37l-.55-.55Z" transform="translate(105 0.39)"/><path class="cls-1" d="M167,1859.78a2.49,2.49,0,1,1,5,0,2.49,2.49,0,1,1-5,0Zm4,0c0-1.45-.55-2.25-1.5-2.25s-1.5.8-1.5,2.25.53,2.21,1.5,2.21S171,1861.24,171,1859.78Z" transform="translate(105 0.39)"/><path class="cls-1" d="M176.25,1862.34c0-.49,0-1.61,0-2.29v-.51c0-.59,0-.93,0-1.37l-.87-.09v-.39l1.48-.65.16.11.13,1.26v1.64c0,.68,0,1.8,0,2.29Zm1.7-.38v.38h-2.5V1862l1.19-.22h.22Zm2.51-2.91v1c0,.7,0,1.8,0,2.29h-.93c0-.49,0-1.59,0-2.29v-.91c0-1-.26-1.34-.91-1.34a2.38,2.38,0,0,0-1.61.75h-.23v-.49h.55l-.46.2a2.93,2.93,0,0,1,2.15-1.22C180,1857,180.46,1857.62,180.46,1859.05Zm-.29,2.69,1.09.22v.38h-2.51V1862l1.2-.22Z" transform="translate(105 0.39)"/><path class="cls-1" d="M183.87,1859.49a12.55,12.55,0,0,1,1.69-.46v.39a9.92,9.92,0,0,0-1.46.44c-1,.38-1.09.79-1.09,1.11,0,.58.38.8.88.8s.6-.14,1.28-.63l.22-.16.15.23-.31.31c-.65.66-1,1-1.69,1a1.33,1.33,0,0,1-1.46-1.36C182.08,1860.51,182.41,1860,183.87,1859.49Zm1.25,1.85v-2.48c0-1.07-.3-1.33-1-1.33a2.42,2.42,0,0,0-1,.2l.43-.34-.28.94c-.1.31-.26.48-.55.48a.44.44,0,0,1-.49-.43,2,2,0,0,1,2.1-1.34c1.12,0,1.66.51,1.66,1.88v2.31c0,.49.15.66.4.66a.52.52,0,0,0,.43-.24l.22.24a1,1,0,0,1-.93.56A1,1,0,0,1,185.12,1861.34Z" transform="translate(105 0.39)"/><path class="cls-1" d="M188.31,1862.34c0-.49,0-1.61,0-2.29v-.51c0-.59,0-.93,0-1.37l-.87-.09v-.39l1.48-.65.16.11.13,1.26v1.64c0,.68,0,1.8,0,2.29Zm1.7-.38v.38H187.5V1862l1.2-.22h.22Zm2.47-2.91v1c0,.7,0,1.8,0,2.29h-.94c0-.49,0-1.59,0-2.29v-.91c0-1-.27-1.34-.92-1.34a2.28,2.28,0,0,0-1.56.75h-.23v-.49h.55l-.47.2a2.89,2.89,0,0,1,2.11-1.22C192,1857,192.48,1857.62,192.48,1859.05Zm-.3,2.69,1.09.22v.38h-2.5V1862l1.19-.22Zm3.56-2.81v1.12c0,.7,0,1.8,0,2.29h-.93c0-.49,0-1.59,0-2.29v-.93c0-1-.28-1.32-.92-1.32a2.29,2.29,0,0,0-1.56.75h-.26v-.38h.59l-.51.09a2.7,2.7,0,0,1,2.15-1.22C195.23,1857,195.74,1857.59,195.74,1858.93Zm-.29,2.81,1.08.22v.38H194V1862l1.2-.22Z" transform="translate(105 0.39)"/><path class="cls-1" d="M201.86,1859.12a2.31,2.31,0,0,1-.08.61h-4v-.46h2.59c.52,0,.64-.25.64-.55a1.21,1.21,0,0,0-1.21-1.19c-.7,0-1.5.59-1.5,2.14,0,1.39.69,2.13,1.78,2.13a1.9,1.9,0,0,0,1.53-.78l.25.2a2.22,2.22,0,0,1-2.08,1.26,2.37,2.37,0,0,1-2.41-2.66,2.58,2.58,0,0,1,2.48-2.78A2,2,0,0,1,201.86,1859.12Z" transform="translate(105 0.39)"/><path class="cls-1" d="M128.33,1868.54v-.43h1.52v.6h-.11Zm1.52,6.26v.6h-1.52V1875l1.41-.16Zm-.49-3.32c0-1.12,0-2.25,0-3.37h1c0,1.1,0,2.23,0,3.37v.38c0,1.29,0,2.42,0,3.54h-1c0-1.1,0-2.23,0-3.37Zm.49-.1h1.08c1.33,0,1.91-.42,1.91-1.42s-.58-1.35-1.7-1.35h-1.29v-.5h1.61c1.49,0,2.36.74,2.36,1.78,0,.85-.59,1.6-2,1.78v-.1c1.7.14,2.4.9,2.4,1.84s-.82,2-2.87,2h-1.46v-.5H131c1.42,0,2.1-.53,2.1-1.49s-.66-1.52-2.18-1.52h-1.11Z" transform="translate(105 0.39)"/><path class="cls-1" d="M136.5,1867.35l.15.09,0,1.54v4.13c0,.77,0,1.53,0,2.29h-.94c0-.76,0-1.52,0-2.29v-4.78l-.91-.11v-.38Zm1,7.67v.38h-2.68V1875l1.23-.22h.22Z" transform="translate(105 0.39)"/><path class="cls-1" d="M140,1872.55a12.81,12.81,0,0,1,1.68-.46v.39a9.76,9.76,0,0,0-1.45.44c-1,.38-1.09.79-1.09,1.11,0,.58.38.8.88.8s.6-.14,1.28-.63l.22-.16.15.23-.31.31c-.65.66-1,1-1.69,1a1.33,1.33,0,0,1-1.46-1.36C138.17,1873.57,138.5,1873.08,140,1872.55Zm1.25,1.85v-2.48c0-1.07-.31-1.33-1-1.33a2.42,2.42,0,0,0-1,.2l.43-.34-.28.93c-.1.32-.26.49-.56.49a.43.43,0,0,1-.48-.43,2,2,0,0,1,2.1-1.34c1.12,0,1.66.51,1.66,1.88v2.31c0,.49.15.66.4.66a.52.52,0,0,0,.43-.24l.21.24a1,1,0,0,1-.92.56A1,1,0,0,1,141.21,1874.4Z" transform="translate(105 0.39)"/><path class="cls-1" d="M143.41,1877.85l-.15-.36a2.78,2.78,0,0,0,1.69-2.09l0,.47-.53-.42a1,1,0,0,1-.4-.77.62.62,0,0,1,.65-.67,1,1,0,0,1,.68.31,3.09,3.09,0,0,1,.12.79A3.14,3.14,0,0,1,143.41,1877.85Z" transform="translate(105 0.39)"/><path class="cls-1" d="M149.34,1875l1.17-.22-.35.6c0-.49,0-1.61,0-2.29v-4.78l-.9-.11v-.38l1.63-.49.15.09,0,1.54v2.09l0,.14v3.33l-.11,1-1.61-.11Zm4.5-2.16c0-1.4-.57-2.16-1.4-2.16-.39,0-.92.17-1.72,1l-.1-.2a2.52,2.52,0,0,1,2.08-1.37c1.15,0,2.07,1,2.07,2.67s-1,2.77-2.23,2.77c-.67,0-1.34-.29-1.92-1.42l.1-.18a2.2,2.2,0,0,0,1.67,1C153.17,1874.94,153.84,1874.27,153.84,1872.86Z" transform="translate(105 0.39)"/><path class="cls-1" d="M157.1,1867.35l.15.09,0,1.54v4.13c0,.77,0,1.53,0,2.29h-.94c0-.76,0-1.52,0-2.29v-4.78l-.91-.11v-.38Zm1,7.67v.38h-2.68V1875l1.23-.22h.22Z" transform="translate(105 0.39)"/><path class="cls-1" d="M160.56,1872.55a12.55,12.55,0,0,1,1.69-.46v.39a9.92,9.92,0,0,0-1.46.44c-1,.38-1.09.79-1.09,1.11,0,.58.38.8.88.8s.6-.14,1.28-.63l.22-.16.15.23-.31.31c-.65.66-1,1-1.69,1a1.33,1.33,0,0,1-1.46-1.36C158.77,1873.57,159.1,1873.08,160.56,1872.55Zm1.25,1.85v-2.48c0-1.07-.3-1.33-1-1.33a2.42,2.42,0,0,0-1,.2l.43-.34-.28.93c-.1.32-.26.49-.55.49a.44.44,0,0,1-.49-.43,2,2,0,0,1,2.1-1.34c1.12,0,1.66.51,1.66,1.88v2.31c0,.49.15.66.4.66a.52.52,0,0,0,.43-.24l.22.24a1,1,0,0,1-.93.56A1,1,0,0,1,161.81,1874.4Z" transform="translate(105 0.39)"/><path class="cls-1" d="M164,1877.85l-.15-.36a2.78,2.78,0,0,0,1.69-2.09l0,.47-.53-.42a1,1,0,0,1-.4-.77.62.62,0,0,1,.65-.67,1,1,0,0,1,.68.31,2.71,2.71,0,0,1,.12.79A3.14,3.14,0,0,1,164,1877.85Z" transform="translate(105 0.39)"/><path class="cls-1" d="M169.94,1875l1.18-.22-.36.6c0-.49,0-1.61,0-2.29v-4.78l-.9-.11v-.38l1.63-.49.15.09,0,1.54v2.09l0,.14v3.33l-.11,1-1.61-.11Zm4.5-2.16c0-1.4-.57-2.16-1.4-2.16-.39,0-.92.17-1.72,1l-.1-.2a2.52,2.52,0,0,1,2.08-1.37c1.16,0,2.07,1,2.07,2.67s-1,2.77-2.23,2.77c-.66,0-1.34-.29-1.92-1.42l.1-.18a2.21,2.21,0,0,0,1.67,1C173.77,1874.94,174.44,1874.27,174.44,1872.86Z" transform="translate(105 0.39)"/><path class="cls-1" d="M177.7,1867.35l.15.09,0,1.54v4.13c0,.77,0,1.53,0,2.29h-.93c0-.76,0-1.52,0-2.29v-4.78l-.91-.11v-.38Zm1,7.67v.38H176V1875l1.23-.22h.22Z" transform="translate(105 0.39)"/><path class="cls-1" d="M181.16,1872.55a12.55,12.55,0,0,1,1.69-.46v.39a9.92,9.92,0,0,0-1.46.44c-1,.38-1.09.79-1.09,1.11,0,.58.38.8.88.8s.6-.14,1.28-.63l.22-.16.15.23-.31.31c-.65.66-1,1-1.69,1a1.32,1.32,0,0,1-1.45-1.36C179.38,1873.57,179.7,1873.08,181.16,1872.55Zm1.25,1.85v-2.48c0-1.07-.3-1.33-1-1.33a2.42,2.42,0,0,0-1,.2l.43-.34-.28.93c-.1.32-.26.49-.55.49a.44.44,0,0,1-.49-.43,2,2,0,0,1,2.1-1.34c1.12,0,1.66.51,1.66,1.88v2.31c0,.49.15.66.4.66a.52.52,0,0,0,.43-.24l.22.24a1,1,0,0,1-.93.56A1,1,0,0,1,182.41,1874.4Z" transform="translate(105 0.39)"/><path class="cls-1" d="M186.69,1872.55a12.39,12.39,0,0,1,1.68-.46v.39a9.76,9.76,0,0,0-1.45.44c-1,.38-1.09.79-1.09,1.11,0,.58.38.8.88.8s.6-.14,1.28-.63l.22-.16.15.23-.31.31c-.66.66-1,1-1.69,1a1.33,1.33,0,0,1-1.46-1.36C184.9,1873.57,185.23,1873.08,186.69,1872.55Zm1.25,1.85v-2.48c0-1.07-.31-1.33-1-1.33a2.42,2.42,0,0,0-1,.2l.43-.34-.28.93c-.1.32-.26.49-.56.49a.45.45,0,0,1-.49-.43,2,2,0,0,1,2.1-1.34c1.13,0,1.67.51,1.67,1.88v2.31c0,.49.15.66.4.66a.52.52,0,0,0,.43-.24l.21.24a1,1,0,0,1-.92.56A1,1,0,0,1,187.94,1874.4Z" transform="translate(105 0.39)"/><path class="cls-1" d="M192.22,1872.55a12.39,12.39,0,0,1,1.68-.46v.39a10.31,10.31,0,0,0-1.46.44c-1,.38-1.08.79-1.08,1.11,0,.58.38.8.88.8s.6-.14,1.28-.63l.22-.16.15.23-.31.31c-.66.66-1,1-1.69,1a1.33,1.33,0,0,1-1.46-1.36C190.43,1873.57,190.76,1873.08,192.22,1872.55Zm1.25,1.85v-2.48c0-1.07-.31-1.33-1-1.33a2.38,2.38,0,0,0-1,.2l.43-.34-.28.93c-.1.32-.26.49-.56.49a.44.44,0,0,1-.49-.43,2,2,0,0,1,2.1-1.34c1.12,0,1.67.51,1.67,1.88v2.31c0,.49.15.66.4.66a.52.52,0,0,0,.42-.24l.22.24a1,1,0,0,1-.92.56A1,1,0,0,1,193.47,1874.4Z" transform="translate(105 0.39)"/><path class="cls-1" d="M195.67,1877.85l-.16-.36a2.79,2.79,0,0,0,1.7-2.09l0,.47-.52-.42a1,1,0,0,1-.4-.77.62.62,0,0,1,.65-.67,1,1,0,0,1,.68.31,3.09,3.09,0,0,1,.12.79A3.14,3.14,0,0,1,195.67,1877.85Z" transform="translate(105 0.39)"/><path class="cls-1" d="M199.05,1875l1.18-.22-.36.6c0-.49,0-1.61,0-2.29v-4.78l-.9-.11v-.38l1.63-.49.15.09,0,1.54v2.09l0,.14v3.33l-.11,1-1.61-.11Zm4.5-2.16c0-1.4-.57-2.16-1.4-2.16-.39,0-.92.17-1.72,1l-.1-.2a2.54,2.54,0,0,1,2.08-1.37c1.16,0,2.07,1,2.07,2.67s-1,2.77-2.23,2.77c-.66,0-1.34-.29-1.92-1.42l.1-.18a2.21,2.21,0,0,0,1.67,1C202.88,1874.94,203.55,1874.27,203.55,1872.86Z" transform="translate(105 0.39)"/><path class="cls-1" d="M206.81,1867.35l.15.09,0,1.54v4.13c0,.77,0,1.53,0,2.29H206c0-.76,0-1.52,0-2.29v-4.78l-.9-.11v-.38Zm1,7.67v.38h-2.67V1875l1.22-.22h.22Z" transform="translate(105 0.39)"/><path class="cls-1" d="M208.3,1877.85l-.15-.36a2.81,2.81,0,0,0,1.7-2.09l0,.47-.52-.42a1,1,0,0,1-.41-.77.62.62,0,0,1,.66-.67,1,1,0,0,1,.67.31,2.71,2.71,0,0,1,.12.79A3.12,3.12,0,0,1,208.3,1877.85Z" transform="translate(105 0.39)"/><path class="cls-1" d="M211.69,1875l1.17-.22-.36.6c0-.49,0-1.61,0-2.29v-4.78l-.9-.11v-.38l1.63-.49.16.09,0,1.54v2.09l0,.14v3.33l-.1,1-1.61-.11Zm4.5-2.16c0-1.4-.58-2.16-1.4-2.16a2.48,2.48,0,0,0-1.72,1l-.1-.2a2.52,2.52,0,0,1,2.08-1.37c1.15,0,2.06,1,2.06,2.67s-1,2.77-2.23,2.77c-.66,0-1.33-.29-1.91-1.42l.1-.18a2.18,2.18,0,0,0,1.66,1C215.52,1874.94,216.19,1874.27,216.19,1872.86Z" transform="translate(105 0.39)"/><path class="cls-1" d="M219.44,1867.35l.16.09,0,1.54v4.13c0,.77,0,1.53,0,2.29h-.94c0-.76,0-1.52,0-2.29v-4.78l-.9-.11v-.38Zm1,7.67v.38h-2.68V1875l1.23-.22h.22Z" transform="translate(105 0.39)"/><path class="cls-1" d="M222.51,1873.47c0,1,.29,1.31.88,1.31a2.39,2.39,0,0,0,1.67-.82h.23v.56h-.56l.38-.16a2.59,2.59,0,0,1-2.06,1.18c-.87,0-1.42-.52-1.41-2l0-2.87.22.21-1-.22v-.38l1.57-.14.11.11-.06,1.52Zm2.59,2-.15-1.28,0-3.5.23.21-1-.22v-.38l1.54-.14.11.11,0,1.52v3.25l-.26-.26,1,.22v.38Z" transform="translate(105 0.39)"/><path class="cls-1" d="M230,1877.63v.38h-2.78v-.38l1.23-.22h.21Zm-1.87-5c0-.6,0-.93,0-1.37l-.87-.1v-.38l1.48-.65.16.11.09.92,0,0v3.39l0,.07v1.08c0,.77,0,1.55,0,2.31h-.9q0-1.14,0-2.28Zm2.22-1.9a2.65,2.65,0,0,0-1.74,1l-.1-.2a2.52,2.52,0,0,1,2.08-1.37c1.15,0,2.07,1,2.07,2.7s-1,2.74-2.24,2.74c-.66,0-1.33-.3-1.91-1.44l.1-.17a2.11,2.11,0,0,0,1.62,1c.83,0,1.5-.64,1.5-2S231.16,1870.7,230.36,1870.7Z" transform="translate(105 0.39)"/><image width="2931" height="2229" transform="translate(105) scale(0.12)" xlink:href="work/picture2.png"/><image width="5553" height="5018" transform="translate(105 162.39) scale(0.06 0.03)" xlink:href="work/gradient.png"/><text class="cls-2" transform="translate(211.81 253.13) scale(0.96 1)"><tspan class="cls-3">V</tspan><tspan x="21.43" y="0">iola Zupa</tspan></text></svg>